# xmcd
#
# Track frame offsets:
#	150
#	20442
#	37520
#	54778
#	71675
#	87053
#	105864
#	122492
#	139288
#	152700
#	170561
#	189802
#	207568
#	216830
#	236115
#	263015
#	282324
#
# Disc length: 4056 seconds
#
# Revision: 0
# Processed by: cddbd v1.5.2PL0 Copyright (c) Steve Scherf et al.
# Submitted via: audiograbber 1.83.01
#
DISCID=e00fd611
DTITLE=Various Artist - Pure... American Anthems [CD 1 of 4) (2014)
DYEAR=2014
DGENRE=Pop
TTITLE0=Starship - Nothing's Gonna Stop Us Now
TTITLE1=Survivor - Eye Of The Tiger
TTITLE2=Blue Oyster Cult - (Don't Fear) The Reaper
TTITLE3=Reo Speedwagon - Can't Fight This Feeling
TTITLE4=Kansas - Carry On Wayward Son
TTITLE5=Cundi Lauper - I Drove All Night
TTITLE6=Lissie - When I'm Alone
TTITLE7=Daryl Hall and John Oates - I Can't Go For That (No Can Do)
TTITLE8=Boz Scaggs - What Can I Say
TTITLE9=Billy Swan - I Can Help
TTITLE10=Bill Withers - Lean On Me
TTITLE11=Bruce Hornsby and The Range - The Way It Is
TTITLE12=The Byrds - Ballad Of Easy Rider
TTITLE13=Bad English - When I See You Smile
TTITLE14=Boston - Don't Look Back
TTITLE15=America - A Horse With No Name
TTITLE16=Meat Loaf - Bat Out of Hell
EXTD=
EXTT0=
EXTT1=
EXTT2=
EXTT3=
EXTT4=
EXTT5=
EXTT6=
EXTT7=
EXTT8=
EXTT9=
EXTT10=
EXTT11=
EXTT12=
EXTT13=
EXTT14=
EXTT15=
EXTT16=
PLAYORDER=
